/* XPM */
static char * HalloweenFly2_xpm[] = {
"64 50 26 1",
" 	c None",
".	c #111111",
"+	c #010101",
"@	c #030303",
"#	c #0E0E0E",
"$	c #000000",
"%	c #020202",
"&	c #040404",
"*	c #070707",
"=	c #050505",
"-	c #090909",
";	c #080808",
">	c #121212",
",	c #141414",
"'	c #0C0C0C",
")	c #0B0B0B",
"!	c #0A0A0A",
"~	c #0F0F0F",
"{	c #0D0D0D",
"]	c #1F1F1F",
"^	c #131313",
"/	c #1B1B1B",
"(	c #060606",
"_	c #101010",
":	c #1E1E1E",
"<	c #181818",
"                                                                ",
"                                                                ",
"                                                                ",
"                                                                ",
"                                                                ",
"                           .                                    ",
"                            +@#                                 ",
"                             @$%                                ",
"                              @$$&*                             ",
"                               +$$$@%                           ",
"                                $$$$$$=-                        ",
"                                #+$$$$$;                        ",
"                                 *$$$$$$                        ",
"                                  $$$$$$+@                      ",
"                                 &-$$$$$$$$                     ",
"                                   %$$$$%@>                     ",
"                                 ,-$$$$'=                       ",
"                               %$+$$$$$)                        ",
"                              +$$$$$@!==                        ",
"                             !$$$$$$%                           ",
"                             +$$$$$$$~                          ",
"                            {$$$$$$$$]                          ",
"                            $$$$$$$$$                 ';;       ",
"                           )$$$$$$$$$%            #$@&@@        ",
"                           %$$$$$$$$$$%)    *#@%+$+@&           ",
"                           %$$$$$$$$;+$$$$$$$$$$$%              ",
"                           @$$$$$$$$^ %+$$$$$@@%                ",
"                           +$$$$$$$$+   @$$==                   ",
"                          #$$$$$$$$$$ *$%*                      ",
"                          /$$$$$$$$$$$==                        ",
"                           @('&$$$$$$$(                         ",
"                             >$$$$$$$$$+                        ",
"                           !($$$$$$$$$$$=                       ",
"                      ( -%=$; %$$$$$$$$+                        ",
"                     @+&@=>_  @$$$$$$$&                         ",
"               :<-$$$$$%  +$* ;$$$$$+;                          ",
"       ($$$$$$$$$$$+     ($$$$$$%+@@                            ",
"       $+$$$$$$$$$+      &$$+;&$                                ",
"       ~$$$$$$$$$@       $$+                                    ",
"       {$$$$$$$$@       @$(                                     ",
"       =$$$$$$+&        +)                                      ",
"        @$$$$@         )                                        ",
"        ;$$$=                                                   ",
"         %$+                                                    ",
"          @                                                     ",
"                                                                ",
"                                                                ",
"                                                                ",
"                                                                ",
"                                                                "};
