/* XPM */
static char * HalloweenLampsOff2_xpm[] = {
"43 41 610 2",
"  	c None",
". 	c #007A02",
"+ 	c #9C6E06",
"@ 	c #A67608",
"# 	c #AC7A09",
"$ 	c #835D04",
"% 	c #A37407",
"& 	c #946905",
"* 	c #AD7A09",
"= 	c #7B5803",
"- 	c #A87807",
"; 	c #AC7808",
"> 	c #805604",
", 	c #955900",
"' 	c #945800",
") 	c #785302",
"! 	c #A47407",
"~ 	c #AF7B08",
"{ 	c #835804",
"] 	c #935400",
"^ 	c #98600D",
"/ 	c #B0874C",
"( 	c #C1A375",
"_ 	c #CCB28B",
": 	c #CEB38C",
"< 	c #8E6B28",
"[ 	c #9F7106",
"} 	c #B17C07",
"| 	c #9B6E1F",
"1 	c #915500",
"2 	c #905400",
"3 	c #A25E00",
"4 	c #AB6A0B",
"5 	c #BE9150",
"6 	c #C9A97A",
"7 	c #D0B48D",
"8 	c #CDB38B",
"9 	c #CDB28B",
"0 	c #8A7558",
"a 	c #6E5424",
"b 	c #996D05",
"c 	c #B88108",
"d 	c #684910",
"e 	c #BEA683",
"f 	c #C7A471",
"g 	c #B68030",
"h 	c #A45F00",
"i 	c #995B00",
"j 	c #875100",
"k 	c #A56302",
"l 	c #B67B26",
"m 	c #C19049",
"n 	c #CCAB7A",
"o 	c #C9A97B",
"p 	c #C7A77A",
"q 	c #C4A57A",
"r 	c #C3A57A",
"s 	c #C6A87B",
"t 	c #967E5A",
"u 	c #7A6033",
"v 	c #684801",
"w 	c #554012",
"x 	c #806A48",
"y 	c #9C8665",
"z 	c #C6AB84",
"A 	c #BCA179",
"B 	c #C0A47E",
"C 	c #C19D67",
"D 	c #B77514",
"E 	c #AB6500",
"F 	c #AF731B",
"G 	c #C18B3F",
"H 	c #C18F46",
"I 	c #C9A470",
"J 	c #C3A06E",
"K 	c #C6A576",
"L 	c #C3A26F",
"M 	c #C9A878",
"N 	c #C4A270",
"O 	c #B3966A",
"P 	c #C9AB7E",
"Q 	c #D1B58E",
"R 	c #B6945F",
"S 	c #B99662",
"T 	c #CBA56F",
"U 	c #C29F6C",
"V 	c #B99B6F",
"W 	c #CAA776",
"X 	c #BF9D6C",
"Y 	c #B6986D",
"Z 	c #BB9E74",
"` 	c #B77C28",
" .	c #B46A00",
"..	c #9D5D00",
"+.	c #B17117",
"@.	c #C08839",
"#.	c #C28E43",
"$.	c #C49B5F",
"%.	c #CAAB7E",
"&.	c #C5A06B",
"*.	c #CFAF82",
"=.	c #C1985E",
"-.	c #AD8C5D",
";.	c #CCAC7E",
">.	c #CBA976",
",.	c #C89D5E",
"'.	c #C89D5F",
").	c #C79C5F",
"!.	c #C39A5F",
"~.	c #AD8E61",
"{.	c #CAA46C",
"].	c #C59C5F",
"^.	c #B3905F",
"/.	c #B69563",
"(.	c #AC7426",
"_.	c #B56A00",
":.	c #A05F01",
"<.	c #AB6909",
"[.	c #C69959",
"}.	c #BF8028",
"|.	c #C09251",
"1.	c #CEAE80",
"2.	c #C49759",
"3.	c #CBA876",
"4.	c #C99C5E",
"5.	c #BA8E50",
"6.	c #A08750",
"7.	c #C9A675",
"8.	c #CBA46D",
"9.	c #C79650",
"0.	c #C69650",
"a.	c #C99650",
"b.	c #837250",
"c.	c #BA965D",
"d.	c #C89754",
"e.	c #AF8850",
"f.	c #BA9054",
"g.	c #975C0B",
"h.	c #B66B01",
"i.	c #935701",
"j.	c #CBA671",
"k.	c #B86C02",
"l.	c #BE8A40",
"m.	c #D0B186",
"n.	c #C28F48",
"o.	c #CBA672",
"p.	c #C9944D",
"q.	c #AC8243",
"r.	c #B59942",
"s.	c #CBA93E",
"t.	c #CCA66C",
"u.	c #C68F42",
"v.	c #C78F43",
"w.	c #C89045",
"x.	c #C99044",
"y.	c #B88743",
"z.	c #8A7943",
"A.	c #CCAB44",
"B.	c #CCA35B",
"C.	c #C58E43",
"D.	c #AA7F44",
"E.	c #BA8338",
"F.	c #945700",
"G.	c #B26A01",
"H.	c #7F4C01",
"I.	c #B2741A",
"J.	c #C18737",
"K.	c #BF7A1C",
"L.	c #CDA977",
"M.	c #C9934A",
"N.	c #C79B5F",
"O.	c #CE9C58",
"P.	c #997337",
"Q.	c #BA9D36",
"R.	c #CEAC37",
"S.	c #C99637",
"T.	c #C78A37",
"U.	c #C98A37",
"V.	c #C98B37",
"W.	c #CA8B37",
"X.	c #CC954A",
"Y.	c #96743E",
"Z.	c #C4A537",
"`.	c #CEAD37",
" +	c #CEAD36",
".+	c #CA9A37",
"++	c #C78837",
"@+	c #A67838",
"#+	c #A56306",
"$+	c #B26802",
"%+	c #965801",
"&+	c #C0893E",
"*+	c #BA6B00",
"=+	c #BB7D28",
"-+	c #CD9F62",
";+	c #BD7B22",
">+	c #D7AD76",
",+	c #8D6928",
"'+	c #BCA22A",
")+	c #D0B12A",
"!+	c #CFAA2A",
"~+	c #C9822C",
"{+	c #CA862C",
"]+	c #CC862C",
"^+	c #CC872D",
"/+	c #CC872F",
"(+	c #D7A15C",
"_+	c #74662F",
":+	c #D4B32A",
"<+	c #D1B22A",
"[+	c #CD9F2B",
"}+	c #C6812C",
"|+	c #B0782C",
"1+	c #B8751A",
"2+	c #8C5202",
"3+	c #AD6601",
"4+	c #CBA46B",
"5+	c #BA6C01",
"6+	c #D0AA77",
"7+	c #C88328",
"8+	c #D0A265",
"9+	c #896F32",
"0+	c #C1A921",
"a+	c #D3B621",
"b+	c #D3B921",
"c+	c #CC8821",
"d+	c #CD8122",
"e+	c #CF8222",
"f+	c #D08322",
"g+	c #CF8221",
"h+	c #D0913F",
"i+	c #AF8345",
"j+	c #958420",
"k+	c #D4B721",
"l+	c #D4B821",
"m+	c #D0A421",
"n+	c #C07921",
"o+	c #99631C",
"p+	c #AA6303",
"q+	c #B06802",
"r+	c #804C01",
"s+	c #AE6500",
"t+	c #CDA46A",
"u+	c #B96D06",
"v+	c #D1AA73",
"w+	c #C37814",
"x+	c #7F6A2A",
"y+	c #CAB314",
"z+	c #D7BD16",
"A+	c #D3A217",
"B+	c #D07E19",
"C+	c #D27F19",
"D+	c #D38019",
"E+	c #D3801C",
"F+	c #D79B50",
"G+	c #785B1E",
"H+	c #D4BA15",
"I+	c #D7BF16",
"J+	c #D2AB16",
"K+	c #A06314",
"L+	c #BF6E03",
"M+	c #965802",
"N+	c #874F01",
"O+	c #B16C0B",
"P+	c #C99955",
"Q+	c #BB700E",
"R+	c #C98022",
"S+	c #89590D",
"T+	c #A49311",
"U+	c #D4BF0D",
"V+	c #DBC50D",
"W+	c #DBC40D",
"X+	c #DAC40D",
"Y+	c #D9BE0D",
"Z+	c #D27811",
"`+	c #D67C12",
" @	c #D77D12",
".@	c #D78829",
"+@	c #DE923A",
"@@	c #756A0C",
"#@	c #DFC80D",
"$@	c #DAC50D",
"%@	c #DAC60D",
"&@	c #D9C00D",
"*@	c #B57D0B",
"=@	c #C26F04",
"-@	c #8C5102",
";@	c #8D5301",
">@	c #AF6A08",
",@	c #CA9753",
"'@	c #82540F",
")@	c #C77309",
"!@	c #BD710B",
"~@	c #CF882F",
"{@	c #AB6707",
"]@	c #947106",
"^@	c #AB9A06",
"/@	c #CFBB07",
"(@	c #DBC607",
"_@	c #DDC907",
":@	c #DEC907",
"<@	c #DECC07",
"[@	c #D78E09",
"}@	c #D87A0B",
"|@	c #DA7B0B",
"1@	c #DC9644",
"2@	c #95631A",
"3@	c #AE9F06",
"4@	c #DAC608",
"5@	c #D2BC10",
"6@	c #D09F0D",
"7@	c #CC7A09",
"8@	c #C97309",
"9@	c #B66904",
"0@	c #B06404",
"a@	c #895002",
"b@	c #885002",
"c@	c #AC6501",
"d@	c #CA9B5B",
"e@	c #8E5708",
"f@	c #AD7E00",
"g@	c #C17410",
"h@	c #CB8225",
"i@	c #CC7405",
"j@	c #D07505",
"k@	c #CB7106",
"l@	c #AF6705",
"m@	c #C87F1D",
"n@	c #C97504",
"o@	c #CD7705",
"p@	c #C97805",
"q@	c #CB7905",
"r@	c #DB7907",
"s@	c #DE7B0B",
"t@	c #DE9D52",
"u@	c #D08C38",
"v@	c #D78F32",
"w@	c #D68F32",
"x@	c #D28D31",
"y@	c #CE8B32",
"z@	c #C58B40",
"A@	c #C39154",
"B@	c #D6801A",
"C@	c #CA7304",
"D@	c #BB6A04",
"E@	c #553C00",
"F@	c #9E5C03",
"G@	c #7E4A01",
"H@	c #C69148",
"I@	c #BB771C",
"J@	c #685001",
"K@	c #C49302",
"L@	c #C97C12",
"M@	c #CD7305",
"N@	c #D17505",
"O@	c #CF7306",
"P@	c #B16706",
"Q@	c #CA8021",
"R@	c #CC7304",
"S@	c #D17605",
"T@	c #D67806",
"U@	c #DA7807",
"V@	c #DD7A07",
"W@	c #DF7B08",
"X@	c #DF8013",
"Y@	c #DD831B",
"Z@	c #D9821D",
"`@	c #D5811C",
" #	c #D17F1A",
".#	c #CD7D1A",
"+#	c #BB7110",
"@#	c #C38F50",
"##	c #D67E13",
"$#	c #B96A04",
"%#	c #805F01",
"&#	c #C29301",
"*#	c #A05D03",
"=#	c #6E4101",
"-#	c #BA781E",
";#	c #BC6F09",
">#	c #3F2F03",
",#	c #C19601",
"'#	c #C79B01",
")#	c #CA8703",
"!#	c #D17205",
"~#	c #D17506",
"{#	c #AE6405",
"]#	c #CC8831",
"^#	c #CB7304",
"/#	c #D07605",
"(#	c #D57806",
"_#	c #D97807",
":#	c #DD7907",
"<#	c #DF7A08",
"[#	c #DF7A07",
"}#	c #DC7907",
"|#	c #D77806",
"1#	c #D47605",
"2#	c #D07405",
"3#	c #B46704",
"4#	c #CBA371",
"5#	c #DA7806",
"6#	c #905B03",
"7#	c #A27F01",
"8#	c #CA9D01",
"9#	c #C79202",
"0#	c #965603",
"a#	c #4F2E01",
"b#	c #B2721C",
"c#	c #BA7518",
"d#	c #AE7423",
"e#	c #977800",
"f#	c #CBA301",
"g#	c #CAA201",
"h#	c #CB9D02",
"i#	c #D08204",
"j#	c #AE6004",
"k#	c #D09850",
"l#	c #CA7203",
"m#	c #CF7505",
"n#	c #D37606",
"o#	c #D27605",
"p#	c #CE7405",
"q#	c #CA7204",
"r#	c #AB6004",
"s#	c #AA8750",
"t#	c #967100",
"u#	c #C8A001",
"v#	c #C77C04",
"w#	c #894F03",
"x#	c #BD7D25",
"y#	c #4B3700",
"z#	c #CAA501",
"A#	c #CEA801",
"B#	c #CEAA01",
"C#	c #CAA102",
"D#	c #D0A447",
"E#	c #C97603",
"F#	c #CD7105",
"G#	c #D47706",
"H#	c #D77807",
"I#	c #D87807",
"J#	c #D47606",
"K#	c #C17104",
"L#	c #B47303",
"M#	c #997C01",
"N#	c #CEA800",
"O#	c #CFAA01",
"P#	c #CEA901",
"Q#	c #CEA601",
"R#	c #BE6B04",
"S#	c #744302",
"T#	c #AB6401",
"U#	c #BF7310",
"V#	c #AE6A0F",
"W#	c #8A7501",
"X#	c #D4B202",
"Y#	c #D2AF02",
"Z#	c #C6A502",
"`#	c #D0AF02",
" $	c #D1B002",
".$	c #D2B202",
"+$	c #D0AB02",
"@$	c #CF9404",
"#$	c #D08304",
"$$	c #D17D05",
"%$	c #D37C06",
"&$	c #D07C05",
"*$	c #C77E04",
"=$	c #BA8504",
"-$	c #B39502",
";$	c #CEAF02",
">$	c #D09504",
",$	c #7F5403",
"'$	c #BA9D02",
")$	c #CE9C02",
"!$	c #9F5C04",
"~$	c #AD6503",
"{$	c #CA8834",
"]$	c #654201",
"^$	c #B8A003",
"/$	c #C87807",
"($	c #C77104",
"_$	c #715102",
":$	c #C6AA02",
"<$	c #D6B802",
"[$	c #D5B602",
"}$	c #C86F04",
"|$	c #C47004",
"1$	c #784C02",
"2$	c #C06D04",
"3$	c #734302",
"4$	c #8F5401",
"5$	c #B36803",
"6$	c #C77C1A",
"7$	c #B16501",
"8$	c #C88021",
"9$	c #C77103",
"0$	c #724C02",
"a$	c #D0B702",
"b$	c #D9BF02",
"c$	c #D8BF02",
"d$	c #CEB702",
"e$	c #C5B002",
"f$	c #D3BB02",
"g$	c #DBC102",
"h$	c #D9BE02",
"i$	c #D7C102",
"j$	c #D5BC02",
"k$	c #D9C002",
"l$	c #DAC102",
"m$	c #C77A04",
"n$	c #995802",
"o$	c #B66A04",
"p$	c #915402",
"q$	c #B56A08",
"r$	c #C47812",
"s$	c #AE6503",
"t$	c #C27816",
"u$	c #3A3800",
"v$	c #DFC803",
"w$	c #DDC503",
"x$	c #D4AE0B",
"y$	c #BF6A02",
"z$	c #BF6D04",
"A$	c #B56A04",
"B$	c #6E6202",
"C$	c #DCC403",
"D$	c #DBC303",
"E$	c #C06B03",
"F$	c #9C5E03",
"G$	c #7E7101",
"H$	c #DFC903",
"I$	c #A46903",
"J$	c #A45F02",
"K$	c #9E5B02",
"L$	c #864F01",
"M$	c #B36904",
"N$	c #BF720B",
"O$	c #AB6303",
"P$	c #BA700B",
"Q$	c #966604",
"R$	c #938602",
"S$	c #B9800B",
"T$	c #C17814",
"U$	c #BE6E02",
"V$	c #B76B03",
"W$	c #736902",
"X$	c #E0CC03",
"Y$	c #DFCB03",
"Z$	c #DCC003",
"`$	c #B46502",
" %	c #8B5304",
".%	c #8A5703",
"+%	c #BA9602",
"@%	c #9B5D02",
"#%	c #A15D02",
"$%	c #9D5B02",
"%%	c #432701",
"&%	c #512F01",
"*%	c #9D5B01",
"=%	c #B96D05",
"-%	c #A76202",
";%	c #B26904",
">%	c #BF6E04",
",%	c #B16702",
"'%	c #AC6705",
")%	c #BC720C",
"!%	c #B56A02",
"~%	c #896C02",
"{%	c #C7A203",
"]%	c #C49D03",
"^%	c #B78A03",
"/%	c #8C5103",
"(%	c #BA6D05",
"_%	c #AE6602",
":%	c #945502",
"<%	c #A25F02",
"[%	c #864D02",
"}%	c #231400",
"|%	c #000000",
"1%	c #523001",
"2%	c #975902",
"3%	c #A76302",
"4%	c #9F5D02",
"5%	c #AB6402",
"6%	c #AC6601",
"7%	c #A35F00",
"8%	c #B46B04",
"9%	c #B96C02",
"0%	c #B46902",
"a%	c #9F5E01",
"b%	c #A56201",
"c%	c #925501",
"d%	c #8E5302",
"e%	c #4D2E01",
"f%	c #241501",
"g%	c #6F4201",
"h%	c #8C5301",
"i%	c #895100",
"j%	c #9B6A23",
"k%	c #986212",
"l%	c #7D4A01",
"m%	c #824D00",
"n%	c #844E01",
"o%	c #6B3F01",
"p%	c #261701",
"q%	c #010000",
"r%	c #010100",
"s%	c #020100",
".                                                                                   . ",
". . . . .                                                                   . . . . . ",
". . . . . . . .                                                       . . . . . . . . ",
"  . . . . . . . . . . .                                       . . . . . . . . . . .   ",
"          . . . . . . . . . . . . .               . . . . . . . . . . . . .           ",
"                . . . . . . . . . . . . . . . . . . . . . . . . . . .                 ",
"                        . . . . . . . . . . . . . . . . . . .                         ",
"                                    . . . . . . .                                     ",
"                                    . . . . . .                                       ",
"                                  . . . . . .   + @ #                                 ",
"                                  . . . . .   $ % & *                                 ",
"                                    . . .   = - ; >                                   ",
"                                      , ' ) ! ~ {                                     ",
"                            ] ^ / ( _ : < [ } | 1 2                                   ",
"                      3 4 5 6 7 8 9 0 a b c d e : f g h i j                           ",
"                  k l m n o p q r s t u v w x y z A B C D E '                         ",
"                F G H I J K L M N O P Q R S T U V W X Y Z `  ...                      ",
"              +.@.#.$.f %.&.*.=.-.;.>.,.'.'.'.).!.~.{.].^./.(._.:.                    ",
"            <.[.}.|.1.2.3.4.5.6.7.8.9.9.9.9.9.0.a.b.c.d.9.e.f.g.h.i.                  ",
"            j.k.l.m.n.o.p.q.r.s.t.u.v.w.x.x.w.v.y.z.A.B.v.C.D.E.F.G.H.                ",
"          I.J.K.L.M.N.O.P.Q.R.R.S.T.U.V.W.W.U.X.Y.Z.`. +.+++J.@+#+$+%+                ",
"          &+*+=+-+;+>+,+'+)+)+)+!+~+{+]+^+^+/+(+_+:+)+)+<+[+}+|+1+2+3+                ",
"          4+5+6+7+8+9+0+a+a+a+a+b+c+d+e+f+g+h+i+j+k+k+k+k+l+m+n+o+p+q+r+              ",
"        s+t+u+v+w+x+y+z+z+z+z+z+z+A+B+C+D+E+F+G+H+z+z+z+z+z+I+J+K+L+M+N+              ",
"        O+P+Q+R+S+T+U+V+V+W+W+X+X+Y+Z+`+ @.@+@@@#@$@$@V+V+V+%@&@*@=@-@;@              ",
"        >@,@'@)@!@~@{@]@^@/@(@_@:@<@[@}@|@1@2@3@:@:@:@4@5@6@7@8@9@0@a@b@              ",
"        c@d@e@f@g@h@i@j@k@l@m@n@o@p@q@r@s@t@u@v@w@x@y@z@A@B@j@C@D@E@F@G@              ",
"          H@I@J@K@L@M@N@O@P@Q@R@S@T@U@V@W@X@Y@Z@`@ #.#+#@###S@$#%#&#*#=#              ",
"          -#;#>#,#'#)#!#~#{#]#^#/#(#_#:#<#[#}#|#1#2#C@3#4#5#6#7#8#9#0#a#              ",
"          b#c#d#e#f#g#h#i#j#k#l#m#n#|#_#}#r@_#T@o#p#q#r#s#t#u#g#g#v#w#                ",
"            x#k#y#z#A#A#B#C#D#E#F#2#G#|#H#I#T@J#2#K#L#M#N#O#P#P#Q#R#S#                ",
"            T#U#V#W#X#Y#Z#`# $.$+$@$#$$$%$&$*$=$-$;$X# $ $>$,$'$)$!$                  ",
"              ~${$]$^$/$($_$:$<$<$<$<$<$<$<$<$<$<$<$<$<$[$}$|$1$2$3$                  ",
"              4$5$6$7$8$9$0$a$b$c$d$e$f$g$h$h$h$i$j$k$h$l$m$n$o$p$                    ",
"                %+q$r$s$t$u$v$w$x$y$z$A$B$w$C$D$E$F$G$C$H$I$J$K$                      ",
"                  L$M$N$O$P$Q$R$S$T$U$V$W$X$Y$Z$`$ %.%+%@%#%$%%%                      ",
"                    &%*%=%-%;%>%,%'%)%!%~%{%]%^%/%(%_%:%<%[%}%                        ",
"                    |%|%1%2%3%4%5%6%7%8%9%0%a%N+b%c%;@d%e%|%|%                        ",
"                      |%|%|%f%g%h%i%j%k%h%l%m%n%n%o%p%|%|%|%|%                        ",
"                            |%|%q%r%s%s%r%s%s%r%q%|%|%                                ",
"                                                                                      "};
