/* XPM */
static char * HalloweenLampsOn2_xpm[] = {
"43 41 590 2",
"  	c None",
". 	c #007A02",
"+ 	c #C59E46",
"@ 	c #CEA547",
"# 	c #D3A848",
"$ 	c #B09044",
"% 	c #CBA347",
"& 	c #BE9A45",
"* 	c #D4A848",
"= 	c #A98B43",
"- 	c #CFA647",
"; 	c #D3A747",
"> 	c #AE8A44",
", 	c #BE8B41",
"' 	c #A78742",
") 	c #CCA347",
"! 	c #D5A947",
"~ 	c #B08B44",
"{ 	c #BD8841",
"] 	c #C2924C",
"^ 	c #D6B481",
"/ 	c #E5CBA4",
"( 	c #EED7B7",
"_ 	c #EFD9B7",
": 	c #B99C62",
"< 	c #C8A046",
"[ 	c #D7AA47",
"} 	c #C49E5B",
"| 	c #BC8941",
"1 	c #BB8841",
"2 	c #CA9141",
"3 	c #D29B4A",
"4 	c #E2BC85",
"5 	c #ECD0A8",
"6 	c #F1DAB8",
"7 	c #EFD8B7",
"8 	c #EFD7B7",
"9 	c #B6A48B",
"0 	c #9E885F",
"a 	c #C39D45",
"b 	c #DDAE47",
"c 	c #997F4E",
"d 	c #E2CEB0",
"e 	c #E9CCA0",
"f 	c #DBAE6A",
"g 	c #CC9141",
"h 	c #C38E41",
"i 	c #B48541",
"j 	c #CD9442",
"k 	c #DBA961",
"l 	c #E5BB7F",
"m 	c #EED1A8",
"n 	c #EBD0A9",
"o 	c #E9CFA8",
"p 	c #E7CDA8",
"q 	c #E6CDA8",
"r 	c #E9CFA9",
"s 	c #C0AB8D",
"t 	c #A8926C",
"u 	c #997E41",
"v 	c #897750",
"w 	c #AD9B7E",
"x 	c #C5B297",
"y 	c #E9D2B1",
"z 	c #E0C9A8",
"A 	c #E3CCAB",
"B 	c #E5C698",
"C 	c #DCA452",
"D 	c #D19741",
"E 	c #D5A258",
"F 	c #E4B776",
"G 	c #E5BA7C",
"H 	c #EBCC9F",
"I 	c #E6C99E",
"J 	c #E9CDA5",
"K 	c #E6CA9F",
"L 	c #EBCFA7",
"M 	c #E7CA9F",
"N 	c #D8C09B",
"O 	c #ECD1AB",
"P 	c #F2DAB9",
"Q 	c #DBBE91",
"R 	c #DDC094",
"S 	c #EDCD9F",
"T 	c #E6C89D",
"U 	c #DDC49F",
"V 	c #ECCFA5",
"W 	c #E3C69D",
"X 	c #DBC29D",
"Y 	c #E0C7A3",
"Z 	c #DCAA63",
"` 	c #DA9A41",
" .	c #C69041",
"..	c #D7A154",
"+.	c #E3B471",
"@.	c #E6B979",
"#.	c #E7C491",
"$.	c #E9CCA1",
"%.	c #E8C99C",
"&.	c #F0D5AF",
"*.	c #E5C291",
"=.	c #D4B790",
"-.	c #EED3AB",
";.	c #EDD0A5",
">.	c #EAC691",
",.	c #E9C591",
"'.	c #E6C391",
").	c #D4BA93",
"!.	c #ECCC9D",
"~.	c #E8C591",
"{.	c #D8BB91",
"].	c #DBBF95",
"^.	c #D3A361",
"/.	c #DA9B41",
"(.	c #C99141",
"_.	c #D19A48",
":.	c #E9C38C",
"<.	c #E3AD62",
"[.	c #E3BD85",
"}.	c #EFD4AD",
"|.	c #E7C18C",
"1.	c #EDCFA5",
"2.	c #EBC591",
"3.	c #DEBA85",
"4.	c #C9B485",
"5.	c #ECCEA4",
"6.	c #EDCC9D",
"7.	c #E9C085",
"8.	c #EBC085",
"9.	c #B0A285",
"0.	c #DEC090",
"a.	c #EAC188",
"b.	c #D5B485",
"c.	c #DFBB88",
"d.	c #C18F4A",
"e.	c #DB9C41",
"f.	c #BD8B41",
"g.	c #EDCEA1",
"h.	c #DD9D42",
"i.	c #E2B677",
"j.	c #F1D7B2",
"k.	c #E6BA7E",
"l.	c #EDCEA2",
"m.	c #EBBE82",
"n.	c #D3AF79",
"o.	c #DAC379",
"p.	c #EDD075",
"q.	c #EECE9D",
"r.	c #E9BA79",
"s.	c #EABB7B",
"t.	c #EBBB7A",
"u.	c #DDB479",
"v.	c #B6A879",
"w.	c #EED17A",
"x.	c #EECB8E",
"y.	c #E8BA79",
"z.	c #D1AC7A",
"A.	c #DEB070",
"B.	c #D79A41",
"C.	c #AC8141",
"D.	c #D7A357",
"E.	c #E5B470",
"F.	c #E3A859",
"G.	c #EFD0A5",
"H.	c #EBBD7F",
"I.	c #E9C491",
"J.	c #EFC58B",
"K.	c #C3A26F",
"L.	c #DEC66E",
"M.	c #EFD36F",
"N.	c #EBC06F",
"O.	c #E9B670",
"P.	c #EBB670",
"Q.	c #ECB770",
"R.	c #ECB670",
"S.	c #EEBF7F",
"T.	c #C0A376",
"U.	c #E7CD6F",
"V.	c #EFD46F",
"W.	c #EFD46E",
"X.	c #ECC370",
"Y.	c #E9B470",
"Z.	c #E4B36F",
"`.	c #CEA670",
" +	c #CD9446",
".+	c #D79942",
"++	c #C08B41",
"@+	c #E3B575",
"#+	c #DE9C41",
"$+	c #E0AB62",
"%+	c #EFC894",
"&+	c #E1A95E",
"*+	c #F7D4A5",
"=+	c #B89A62",
"-+	c #E0CA65",
";+	c #F2D765",
">+	c #F1D765",
",+	c #F0D165",
"'+	c #EBAF66",
")+	c #ECB266",
"!+	c #EEB266",
"~+	c #EEB367",
"{+	c #EEB469",
"]+	c #F7C98F",
"^+	c #A39769",
"/+	c #F5D965",
"(+	c #EFC865",
"_+	c #E9AE66",
":+	c #D6A666",
"<+	c #DDA457",
"[+	c #B78642",
"}+	c #D49741",
"|+	c #EDCC9C",
"1+	c #DF9D41",
"2+	c #F1D1A5",
"3+	c #EAB062",
"4+	c #F2CA97",
"5+	c #B59F6B",
"6+	c #E5D05C",
"7+	c #F4DB5C",
"8+	c #F4DD5C",
"9+	c #EEB45D",
"0+	c #EFAE5E",
"a+	c #F0AF5E",
"b+	c #F1B05E",
"c+	c #F0AF5D",
"d+	c #F2BC76",
"e+	c #D5B07C",
"f+	c #BFB15C",
"g+	c #F5DC5C",
"h+	c #F5DD5C",
"i+	c #F1CC5C",
"j+	c #E3A85D",
"k+	c #C39559",
"l+	c #D19443",
"m+	c #D69942",
"n+	c #AE8141",
"o+	c #EFCC9A",
"p+	c #DD9D46",
"q+	c #F2D1A2",
"r+	c #E6A652",
"s+	c #AC9B65",
"t+	c #ECD852",
"u+	c #F8E153",
"v+	c #F4CA54",
"w+	c #F1AB56",
"x+	c #F3AC56",
"y+	c #F4AD56",
"z+	c #F4AE59",
"A+	c #F8C485",
"B+	c #A78E5A",
"C+	c #F5DF53",
"D+	c #F8E353",
"E+	c #F3D153",
"F+	c #C99552",
"G+	c #E39E43",
"H+	c #C08B42",
"I+	c #B48441",
"J+	c #D79D4A",
"K+	c #ECC389",
"L+	c #E09F4D",
"M+	c #EBAE5E",
"N+	c #B58C4C",
"O+	c #CCBD4F",
"P+	c #F5E34C",
"Q+	c #FBE84C",
"R+	c #FBE74C",
"S+	c #FAE74C",
"T+	c #F9E24C",
"U+	c #F3A64F",
"V+	c #F6AA50",
"W+	c #F7AB50",
"X+	c #F8B464",
"Y+	c #FDBD72",
"Z+	c #A49A4B",
"`+	c #FEEA4C",
" @	c #FAE84C",
".@	c #FAE94C",
"+@	c #F9E34C",
"@@	c #DAAB4A",
"#@	c #E69F44",
"$@	c #B78542",
"%@	c #B88741",
"&@	c #D59A47",
"*@	c #ECC187",
"=@	c #AF884D",
"-@	c #E9A248",
";@	c #E1A14A",
">@	c #F0B468",
",@	c #D29847",
"'@	c #BEA046",
")@	c #D2C346",
"!@	c #F0E047",
"~@	c #FBE947",
"{@	c #FCEB47",
"]@	c #FDEC47",
"^@	c #FDEE47",
"/@	c #F8BA48",
"(@	c #F8A84A",
"_@	c #FAA94A",
":@	c #FBC07A",
"<@	c #BF9557",
"[@	c #D4C846",
"}@	c #FDEB47",
"|@	c #FAE947",
"1@	c #F3E04E",
"2@	c #F1C84C",
"3@	c #EEA848",
"4@	c #EBA248",
"5@	c #DB9A44",
"6@	c #D69644",
"7@	c #B58542",
"8@	c #B48542",
"9@	c #D39741",
"0@	c #ECC48E",
"a@	c #BA8B47",
"b@	c #D4AB41",
"c@	c #E4A34E",
"d@	c #EDAF60",
"e@	c #EEA345",
"f@	c #F2A445",
"g@	c #EDA146",
"h@	c #D59845",
"i@	c #EAAC59",
"j@	c #ECA444",
"k@	c #EFA545",
"l@	c #EBA645",
"m@	c #EDA845",
"n@	c #FBA847",
"o@	c #FDA94A",
"p@	c #FDC686",
"q@	c #F1B770",
"r@	c #F7BA6B",
"s@	c #F6BA6B",
"t@	c #F3B86B",
"u@	c #EFB76B",
"v@	c #E8B777",
"w@	c #E6BC88",
"x@	c #F6AE57",
"y@	c #F1A445",
"z@	c #ECA244",
"A@	c #E09B44",
"B@	c #897341",
"C@	c #C78F43",
"D@	c #AB7F41",
"E@	c #E9BC7E",
"F@	c #E0A559",
"G@	c #998541",
"H@	c #E7BD42",
"I@	c #EBAA50",
"J@	c #EFA245",
"K@	c #F0A246",
"L@	c #D79846",
"M@	c #ECAE5D",
"N@	c #EEA244",
"O@	c #F2A545",
"P@	c #F6A646",
"Q@	c #FAA747",
"R@	c #FCA847",
"S@	c #FEA947",
"T@	c #FEAD51",
"U@	c #FCB058",
"V@	c #F9AF59",
"W@	c #F5AE59",
"X@	c #F2AC57",
"Y@	c #EFAB56",
"Z@	c #E0A04E",
"`@	c #E6BA85",
" #	c #F6AB51",
".#	c #DD9A44",
"+#	c #AE9141",
"@#	c #E6BD41",
"##	c #C99043",
"$#	c #9E7841",
"%#	c #DFA75A",
"&#	c #E09F48",
"*#	c #766843",
"=#	c #E5C041",
"-#	c #E9C441",
";#	c #ECB443",
">#	c #F2A245",
",#	c #F2A446",
"'#	c #D49645",
")#	c #EEB46B",
"!#	c #EDA244",
"~#	c #F5A646",
"{#	c #F9A747",
"]#	c #FEA847",
"^#	c #F8A646",
"/#	c #F5A545",
"(#	c #F1A345",
"_#	c #DA9844",
":#	c #EDCBA0",
"<#	c #FAA746",
"[#	c #BB8E43",
"}#	c #CAAC41",
"|#	c #ECC641",
"1#	c #E9BD42",
"2#	c #C08A43",
"3#	c #846841",
"4#	c #D7A259",
"5#	c #DFA455",
"6#	c #D4A35F",
"7#	c #C1A741",
"8#	c #EDCB41",
"9#	c #ECCA41",
"0#	c #EDC642",
"a#	c #F2AF44",
"b#	c #D49244",
"c#	c #F1C285",
"d#	c #ECA243",
"e#	c #F0A445",
"f#	c #F4A546",
"g#	c #F7A646",
"h#	c #F3A545",
"i#	c #EFA345",
"j#	c #D19244",
"k#	c #D1B485",
"l#	c #C0A141",
"m#	c #EAC941",
"n#	c #E9AA44",
"o#	c #B58443",
"p#	c #E1AB60",
"q#	c #807041",
"r#	c #ECCD41",
"s#	c #EFCF41",
"t#	c #EFD141",
"u#	c #ECC942",
"v#	c #F1CC7D",
"w#	c #EBA543",
"x#	c #EFA145",
"y#	c #F2A345",
"z#	c #F5A546",
"A#	c #F8A747",
"B#	c #E5A044",
"C#	c #DAA243",
"D#	c #C3AA41",
"E#	c #F0D141",
"F#	c #EFD041",
"G#	c #EFCE41",
"H#	c #E29C44",
"I#	c #A37942",
"J#	c #D29641",
"K#	c #E3A24E",
"L#	c #D49B4D",
"M#	c #B6A441",
"N#	c #F5D742",
"O#	c #F3D542",
"P#	c #E9CD42",
"Q#	c #F2D542",
"R#	c #F2D642",
"S#	c #F3D742",
"T#	c #F1D142",
"U#	c #F0BE44",
"V#	c #F1B044",
"W#	c #F2AB45",
"X#	c #F4AA46",
"Y#	c #F2AA45",
"Z#	c #E9AB44",
"`#	c #DFB144",
" $	c #D9BF42",
".$	c #EFD542",
"+$	c #F2BF44",
"@$	c #AC8843",
"#$	c #DFC642",
"$$	c #EFC542",
"%$	c #C88F44",
"&$	c #D49743",
"*$	c #ECB46D",
"=$	c #977941",
"-$	c #DDC943",
";$	c #EAA747",
">$	c #E9A144",
",$	c #A08542",
"'$	c #E9D142",
")$	c #F6DD42",
"!$	c #F5DB42",
"~$	c #EA9F44",
"{$	c #E79F44",
"]$	c #A78142",
"^$	c #E39D44",
"/$	c #A27942",
"($	c #BA8841",
"_$	c #D89943",
":$	c #E9AA56",
"<$	c #D79741",
"[$	c #EAAD5C",
"}$	c #E9A143",
"|$	c #A28142",
"1$	c #F1DC42",
"2$	c #F9E342",
"3$	c #F8E342",
"4$	c #EFDC42",
"5$	c #E8D642",
"6$	c #F4E042",
"7$	c #FBE442",
"8$	c #F9E242",
"9$	c #F8E442",
"0$	c #F5E042",
"a$	c #FAE542",
"b$	c #E9A844",
"c$	c #C38B42",
"d$	c #BC8842",
"e$	c #DA9B47",
"f$	c #E7A650",
"g$	c #E6A753",
"h$	c #727041",
"i$	c #FEEA43",
"j$	c #FCE843",
"k$	c #F5D44A",
"l$	c #E39A42",
"m$	c #DA9B44",
"n$	c #9E9442",
"o$	c #FBE743",
"p$	c #FBE643",
"q$	c #E39C43",
"r$	c #C59143",
"s$	c #ABA141",
"t$	c #FEEC43",
"u$	c #CC9A43",
"v$	c #CC9142",
"w$	c #C78E42",
"x$	c #B28441",
"y$	c #D89A44",
"z$	c #E3A24A",
"A$	c #D19543",
"B$	c #DE9F4A",
"C$	c #C09744",
"D$	c #BDB242",
"E$	c #DDAD4A",
"F$	c #E4A652",
"G$	c #E29E42",
"H$	c #DC9C43",
"I$	c #A29A42",
"J$	c #FFEE43",
"K$	c #FEED43",
"L$	c #FBE343",
"M$	c #DA9742",
"N$	c #B78744",
"O$	c #B68B43",
"P$	c #DEC042",
"Q$	c #C49042",
"R$	c #C99042",
"S$	c #C68E42",
"T$	c #796241",
"U$	c #856941",
"V$	c #C68E41",
"W$	c #DD9D45",
"X$	c #CF9442",
"Y$	c #D79A44",
"Z$	c #E39E44",
"`$	c #D79842",
" %	c #D39845",
".%	c #E0A24B",
"+%	c #DA9B42",
"@%	c #B59D42",
"#%	c #E9CA43",
"$%	c #E7C643",
"%%	c #DCB643",
"&%	c #B78543",
"*%	c #DE9D45",
"=%	c #D49742",
"-%	c #BE8942",
";%	c #CA9142",
">%	c #B28242",
",%	c #5F5241",
"'%	c #414141",
")%	c #866A41",
"!%	c #C18C42",
"~%	c #C89042",
"{%	c #D19642",
"]%	c #CB9141",
"^%	c #DA9C44",
"/%	c #DA9A42",
"(%	c #C89141",
"_%	c #CD9441",
":%	c #BD8941",
"<%	c #B98742",
"[%	c #826841",
"}%	c #5F5341",
"|%	c #9F7941",
"1%	c #B78741",
"2%	c #B58541",
"3%	c #C49B5F",
"4%	c #C29450",
"5%	c #AF8241",
"6%	c #B18341",
"7%	c #9C7641",
"8%	c #615441",
"9%	c #424141",
".                                                                                   . ",
". . . . .                                                                   . . . . . ",
". . . . . . . .                                                       . . . . . . . . ",
"  . . . . . . . . . . .                                       . . . . . . . . . . .   ",
"          . . . . . . . . . . . . .               . . . . . . . . . . . . .           ",
"                . . . . . . . . . . . . . . . . . . . . . . . . . . .                 ",
"                        . . . . . . . . . . . . . . . . . . .                         ",
"                                    . . . . . . .                                     ",
"                                    . . . . . .                                       ",
"                                  . . . . . .   + @ #                                 ",
"                                  . . . . .   $ % & *                                 ",
"                                    . . .   = - ; >                                   ",
"                                      . , ' ) ! ~                                     ",
"                            { ] ^ / ( _ : < [ } | 1                                   ",
"                      2 3 4 5 6 7 8 9 0 a b c d _ e f g h i                           ",
"                  j k l m n o p q r s t u v w x y z A B C D ,                         ",
"                E F G H I J K L M N O P Q R S T U V W X Y Z `  .                      ",
"              ..+.@.#.$.O %.&.*.=.-.;.>.>.>.>.,.'.).!.~.{.].^./.(.                    ",
"            _.:.<.[.}.|.1.2.3.4.5.6.7.7.7.7.7.7.8.9.0.a.7.b.c.d.e.f.                  ",
"            g.h.i.j.k.l.m.n.o.p.q.r.r.s.t.t.s.r.u.v.w.x.r.y.z.A., B.C.                ",
"          D.E.F.G.H.I.J.K.L.M.M.N.O.P.Q.Q.Q.R.S.T.U.V.W.X.Y.Z.`. +.+++                ",
"          @+#+$+%+&+*+=+-+;+>+>+,+'+)+!+~+~+{+]+^+/+;+;+;+(+_+:+<+[+}+                ",
"          |+1+2+3+4+5+6+7+7+7+7+8+9+0+a+b+c+d+e+f+g+g+g+g+h+i+j+k+l+m+n+              ",
"        }+o+p+q+r+s+t+u+u+u+u+u+u+v+w+x+y+z+A+B+C+u+u+u+u+u+D+E+F+G+H+I+              ",
"        J+K+L+M+N+O+P+Q+Q+R+R+S+S+T+U+V+W+X+Y+Z+`+ @ @Q+Q+Q+.@+@@@#@$@%@              ",
"        &@*@=@-@;@>@,@'@)@!@~@{@]@^@/@(@_@:@<@[@]@]@}@|@1@2@3@4@5@6@7@8@              ",
"        9@0@a@b@c@d@e@f@g@h@i@j@k@l@m@n@o@p@q@r@s@t@u@v@w@x@y@z@A@B@C@D@              ",
"          E@F@G@H@I@J@f@K@L@M@N@O@P@Q@R@S@T@U@V@W@X@Y@Z@`@ #O@.#+#@###$#              ",
"          %#&#*#=#-#;#>#,#'#)#!#O@~#{#R@]#]#n@^#/#(#z@_#:#<#[#}#|#1#2#3#              ",
"          4#5#6#7#8#9#0#a#b#c#d#e#f#g#{#n@n@{#P@h#i#z@j#k#l#m#9#9#n#o#                ",
"            p#c#q#r#s#s#t#u#v#w#x#y#z#g#A#A#P@z#y#B#C#D#s#E#F#F#G#H#I#                ",
"            J#K#L#M#N#O#P#Q#R#S#T#U#V#W#X#Y#Z#`# $.$N#R#R#+$@$#$$$%$                  ",
"              &$*$=$-$;$>$,$'$)$)$)$)$)$)$)$)$)$)$)$)$)$!$~${$]$^$/$                  ",
"              ($_$:$<$[$}$|$1$2$3$4$5$6$7$8$8$8$9$0$2$8$a$b$c$5@d$                    ",
"                ++e$f$&$g$h$i$j$k$l$^$m$n$j$o$p$q$r$s$o$t$u$v$w$                      ",
"                  x$y$z$A$B$C$D$E$F$G$H$I$J$K$L$M$N$O$P$Q$R$S$T$                      ",
"                    U$V$W$X$Y$Z$`$ %.%+%@%#%$%%%&%*%=%-%;%>%,%                        ",
"                    '%'%)%!%X$~%{%9@]%^%h./%(%I+_%:%%@<%[%'%'%                        ",
"                      '%'%'%}%|%1%2%3%4%1%D@5%6%6%7%8%'%'%'%'%                        ",
"                            '%'%'%'%9%9%'%9%9%'%'%'%'%                                ",
"                                                                                      "};
