/* XPM */
static char * XmasStar1_xpm[] = {
"116 28 201 2",
"  	c None",
". 	c #E7B670",
"+ 	c #F6C685",
"@ 	c #F4AC61",
"# 	c #F5C373",
"$ 	c #FCB974",
"% 	c #F9C67D",
"& 	c #F5CD83",
"* 	c #FEBA77",
"= 	c #FBC07C",
"- 	c #F7BF82",
"; 	c #FFB655",
"> 	c #FDC97E",
", 	c #F8D482",
"' 	c #FDEA96",
") 	c #F9C093",
"! 	c #FFBC74",
"~ 	c #FED18A",
"{ 	c #F5C378",
"] 	c #F7D792",
"^ 	c #FEAC85",
"/ 	c #FFBD6E",
"( 	c #FFC573",
"_ 	c #F5C17E",
": 	c #FFF9AB",
"< 	c #FBDE85",
"[ 	c #FFF7A8",
"} 	c #FFF69E",
"| 	c #F9CE98",
"1 	c #FEB87D",
"2 	c #FFBC52",
"3 	c #FFC762",
"4 	c #FACC93",
"5 	c #FDEE93",
"6 	c #F08D51",
"7 	c #F8BD76",
"8 	c #F9CF87",
"9 	c #FACB88",
"0 	c #FBCA8F",
"a 	c #F7C16A",
"b 	c #F9C774",
"c 	c #F9C878",
"d 	c #FCD48F",
"e 	c #FFD087",
"f 	c #FFD26E",
"g 	c #FFDE91",
"h 	c #FEDC96",
"i 	c #F9C56A",
"j 	c #F6BD65",
"k 	c #F7B466",
"l 	c #F7BD79",
"m 	c #F9BD79",
"n 	c #F8C071",
"o 	c #FACB82",
"p 	c #FAB575",
"q 	c #EEB381",
"r 	c #F5A552",
"s 	c #FEC87F",
"t 	c #FFD796",
"u 	c #FFE29D",
"v 	c #FFE1A1",
"w 	c #FFE5B2",
"x 	c #FFE7AC",
"y 	c #FFE085",
"z 	c #FFDD99",
"A 	c #FFDE93",
"B 	c #FFE69B",
"C 	c #FFDC7A",
"D 	c #FFDB87",
"E 	c #FEDC9E",
"F 	c #FFCC89",
"G 	c #FFD799",
"H 	c #FFD47D",
"I 	c #FFC787",
"J 	c #FCB567",
"K 	c #F1AD5E",
"L 	c #EBBE80",
"M 	c #F3B969",
"N 	c #FAB965",
"O 	c #FECE98",
"P 	c #FFD189",
"Q 	c #FFD96D",
"R 	c #FFED9C",
"S 	c #FFF2B2",
"T 	c #FFEBA7",
"U 	c #FFE194",
"V 	c #FFE78E",
"W 	c #FFE390",
"X 	c #FFECA5",
"Y 	c #FFD36B",
"Z 	c #FFC566",
"` 	c #FFCC91",
" .	c #FEBC86",
"..	c #F5A968",
"+.	c #E9B66E",
"@.	c #F7D589",
"#.	c #F7C277",
"$.	c #FEC999",
"%.	c #FFD990",
"&.	c #FFE8A0",
"*.	c #FFEE9E",
"=.	c #FFE893",
"-.	c #FFDC6C",
";.	c #FFDE6E",
">.	c #FFE49D",
",.	c #FFD779",
"'.	c #FFC06B",
").	c #FFB782",
"!.	c #FBAA76",
"~.	c #F2B873",
"{.	c #F4D48C",
"].	c #F9EAA6",
"^.	c #F6CC7B",
"/.	c #FCD085",
"(.	c #FFE3A4",
"_.	c #FFEB92",
":.	c #FFDF65",
"<.	c #FFDA6D",
"[.	c #FFD769",
"}.	c #FFE296",
"|.	c #FFD38E",
"1.	c #FEBB80",
"2.	c #FBAC70",
"3.	c #F7C07A",
"4.	c #F8D473",
"5.	c #FFED8B",
"6.	c #FFFBC3",
"7.	c #FFFACE",
"8.	c #FFEB8F",
"9.	c #FFE99B",
"0.	c #FFF9C5",
"a.	c #FFF3B3",
"b.	c #FDD97A",
"c.	c #FAD278",
"d.	c #FFF7A5",
"e.	c #FAD06D",
"f.	c #FFFDAF",
"g.	c #FFFFB2",
"h.	c #FFFFDF",
"i.	c #FFFCCF",
"j.	c #FFEBAB",
"k.	c #FFF2A6",
"l.	c #FFF9D0",
"m.	c #FFE791",
"n.	c #F8C967",
"o.	c #F9D471",
"p.	c #FDE29C",
"q.	c #FFF89B",
"r.	c #FFFA6D",
"s.	c #FFFFB8",
"t.	c #FFF9B4",
"u.	c #FFDCA4",
"v.	c #FFE19D",
"w.	c #FFE788",
"x.	c #FFE8A4",
"y.	c #F6B35E",
"z.	c #F8CA70",
"A.	c #FFEEB8",
"B.	c #FFEC8F",
"C.	c #FFF29F",
"D.	c #FDF39E",
"E.	c #F4DB79",
"F.	c #F9C979",
"G.	c #FFD6AD",
"H.	c #FFCF79",
"I.	c #FFE49B",
"J.	c #FCD19B",
"K.	c #F6C565",
"L.	c #FACD89",
"M.	c #FFE899",
"N.	c #FFEAB5",
"O.	c #FBDC9C",
"P.	c #EFD98E",
"Q.	c #FDF6A6",
"R.	c #F7E59A",
"S.	c #F6C47F",
"T.	c #FEC797",
"U.	c #FFD490",
"V.	c #FFE3A3",
"W.	c #F6B965",
"X.	c #F9CE72",
"Y.	c #FED289",
"Z.	c #FFD993",
"`.	c #F9D594",
" +	c #F2D992",
".+	c #F0C07C",
"++	c #FAB974",
"@+	c #FFD088",
"#+	c #F8C882",
"$+	c #F4B971",
"%+	c #FDBD6E",
"&+	c #F0BF77",
"*+	c #EDD58C",
"=+	c #EEB877",
"-+	c #F7AE62",
";+	c #FCBF7D",
">+	c #F7B554",
",+	c #F3B67C",
"'+	c #E8A765",
")+	c #EF9350",
"!+	c #F0A556",
"                                                                                                                                                                                                                                        ",
"                                                                                                                                                                                                  . +                                   ",
"                                                                                                                                                                                                  @ #                                   ",
"                                                                                                                                                                                                  $ %                                   ",
"                                                                                                                                                                                                & * =                                   ",
"                                                                                                                                                                                                - ; > ,                                 ",
"                                                                                                                                                                                              ' ) ! ~ {                                 ",
"                                                                                                                                                                                              ] ^ / ( _ :                               ",
"                                                                                                                                                                                      <   [ } | 1 2 3 4 5 :                             ",
"                                                                                                                                                                              6 7 8 9 0 a b c d e f g h i j k l m n o p q               ",
"                                                                                                                                                                                r s t u v w x y z A B C D E F G H I J K L               ",
"                                                                                                                                                                                  M N O P Q R S T U V W X Y Z `  ...+.                  ",
"                                                                                                                                                                                    @.#.$.%.&.*.=.-.;.>.,.'.).!.~.{.                    ",
"                                                                                                                                                                                      ].^./.(._.:.<.[.}.|.1.2.3.                        ",
"                                                                                                                                                                                        [ 4.5.6.7.8.9.0.a.b.c.:                         ",
"                                                                                                                                                                                        d.e.f.g.h.i.j.k.l.m.n.                          ",
"                                                                                                                                                                                        o.p.q.r.s.t.u.v.w.x.y.                          ",
"                                                                                                                                                                                        z.A.B.C.D.E.F.G.H.I.J.K.                        ",
"                                                                                                                                                                                        L.M.N.O.P.Q.R.S.T.U.V.W.                        ",
"                                                                                                                                                                                      X.Y.Z.`. +        .+++@+#+                        ",
"                                                                                                                                                                                      $+%+&+*+            =+-+;+>+                      ",
"                                                                                                                                                                                      ,+'+                    )+!+                      ",
"                                                                                                                                                                                                                                        ",
"                                                                                                                                                                                                                                        ",
"                                                                                                                                                                                                                                        ",
"                                                                                                                                                                                                                                        ",
"                                                                                                                                                                                                                                        ",
"                                                                                                                                                                                                                                        "};
